<?xml version="1.0" encoding="UTF-8"?> <svg xmlns="http://www.w3.org/2000/svg" xmlns:xlink="http://www.w3.org/1999/xlink" version="1.1" id="Layer_1" x="0px" y="0px" viewBox="0 0 879.3 548.9" style="enable-background:new 0 0 879.3 548.9;" xml:space="preserve"> <style type="text/css"> .st0{fill:#FFFFFF;} </style> <path class="st0" d="M398.6,173.9c4.9,25,16,46.9,32,64.2c-7.2,9.6-25.4,28.5-56.1,33.8h-98v-60.5h76.1 C352.7,211.4,376.6,211.4,398.6,173.9"></path> <path class="st0" d="M594.5,18.5v63.7h-81.2c0,0-21.6,0.7-40.3,35.8c-3.6-20.7-12.5-39.5-26.7-56c-1.4-1.6-2.8-3.2-4.2-4.7 c8.8-13.7,28.5-36.3,64.2-38.8H594.5z"></path> <path class="st0" d="M340.1,82.2v63h-63.8V17.6c28.1,1.4,56.1,1.3,83.8,4.6c32.4,3.8,59.1,20.3,80.3,45 c18.6,21.7,27.3,47.3,26.6,75.9c-0.6,26.1,9.3,46.5,32.7,58.8c8.5,4.5,16.7,6.2,29.9,6.7v-62.1h65c0.3,2.4,0,5.4,0,8.4 c0.1,36-0.1,72.1,0.2,108.1c0,3.6,0,9.8,0,9.8s-5.6,0.1-9.4,0c-18.4,0.1-45.6-0.1-68.3-2c-61.8-5.1-107-50.8-112.6-112.3 c-1.5-16.4-2.3-33-11.6-47.7C381,92.1,364.2,82.5,340.1,82.2"></path> <path class="st0" d="M295.5,521.3c-2.5,0-4.8-0.4-6.9-1.2c-2.1-0.8-3.9-1.9-5.4-3.3c-1.5-1.4-2.7-3.2-3.5-5.3 c-0.8-2.1-1.3-4.4-1.3-7c0-2.6,0.4-4.9,1.2-6.9c0.8-2.1,1.9-3.8,3.4-5.3c1.4-1.5,3.2-2.6,5.3-3.4c2.1-0.8,4.3-1.2,6.9-1.2 c4.5,0,8.1,1.2,11,3.7c-0.1,0.1-0.2,0.3-0.4,0.6c-0.2,0.3-0.3,0.5-0.4,0.6c-0.2,0.2-0.4,0.4-0.7,0.4c-0.1,0-0.3-0.1-0.5-0.2 c-1.4-0.9-2.8-1.6-4.2-2.1c-1.4-0.5-3-0.7-4.9-0.7c-2,0-3.9,0.3-5.5,1c-1.6,0.7-3,1.6-4.2,2.9c-1.2,1.3-2,2.8-2.7,4.5 c-0.6,1.8-0.9,3.8-0.9,5.9c0,2.3,0.3,4.3,1,6.1c0.6,1.8,1.6,3.3,2.8,4.6c1.2,1.3,2.7,2.2,4.4,2.9s3.6,1,5.8,1c1.6,0,3-0.2,4.4-0.6 c1.4-0.4,2.7-1,4.1-1.7V508h-5.6c-0.5,0-0.7-0.2-0.7-0.6V506h9v12C303.5,520.2,299.8,521.3,295.5,521.3"></path> <path class="st0" d="M355.6,520.9v-32.8h9.1c3.9,0,6.8,0.8,8.7,2.3c1.9,1.6,2.8,3.7,2.8,6.4c0,1.2-0.2,2.4-0.7,3.5 c-0.5,1.1-1.2,2.1-2,2.9c-0.8,0.9-1.8,1.5-2.9,2.1c-1.1,0.5-2.2,0.8-3.4,0.9c0,0.1,0.3,0.2,0.7,0.5c0.4,0.3,1,1,1.8,2l8.9,12.2H376 c-0.5,0-0.9-0.2-1.2-0.6l-9.6-13c-0.2-0.3-0.5-0.5-0.8-0.6c-0.4-0.1-0.8-0.1-1.3-0.1h-4.3v14.3H355.6z M358.7,490.2v14.6h5.6 c3,0,5.2-0.7,6.7-2.1c1.5-1.4,2.2-3.2,2.2-5.5c0-4.7-2.9-7-8.7-7H358.7z"></path> <path class="st0" d="M438.4,521.3c-2.4,0-4.6-0.4-6.6-1.3c-2-0.8-3.7-2-5-3.5c-1.4-1.5-2.5-3.3-3.2-5.3c-0.7-2-1.1-4.3-1.1-6.7 c0-2.4,0.4-4.7,1.1-6.7c0.7-2,1.8-3.8,3.2-5.3c1.4-1.5,3.1-2.7,5-3.5c2-0.8,4.2-1.3,6.6-1.3c2.5,0,4.7,0.4,6.6,1.3 c2,0.8,3.6,2,5,3.5c1.4,1.5,2.5,3.2,3.2,5.3c0.7,2.1,1.1,4.3,1.1,6.7c0,2.4-0.4,4.6-1.1,6.7c-0.7,2.1-1.8,3.8-3.2,5.3 c-1.4,1.5-3.1,2.6-5.1,3.5C443,520.9,440.8,521.3,438.4,521.3 M438.4,518.9c1.9,0,3.7-0.3,5.3-1c1.6-0.7,2.9-1.6,4-2.8 c1.1-1.2,2-2.7,2.6-4.5c0.6-1.8,0.9-3.8,0.9-6c0-2.3-0.3-4.3-0.9-6c-0.6-1.8-1.4-3.3-2.6-4.5c-1.1-1.3-2.5-2.2-4-2.9 c-1.6-0.7-3.3-1-5.3-1c-1.9,0-3.7,0.3-5.3,1c-1.6,0.7-2.9,1.6-4,2.9c-1.1,1.2-2,2.8-2.6,4.5s-0.9,3.8-0.9,6c0,2.2,0.3,4.2,0.9,6 c0.6,1.8,1.5,3.3,2.6,4.5c1.1,1.2,2.5,2.2,4,2.8C434.7,518.6,436.5,518.9,438.4,518.9"></path> <path class="st0" d="M514.9,521.4c-2,0-3.8-0.3-5.3-1c-1.6-0.7-2.9-1.6-4-2.7c-1.1-1.2-1.9-2.5-2.5-4.1c-0.6-1.6-0.9-3.3-0.9-5.2 v-20.1h3.1v20.1c0,1.6,0.2,3,0.7,4.3c0.4,1.3,1.1,2.4,1.9,3.4c0.8,0.9,1.9,1.7,3.1,2.2c1.2,0.5,2.6,0.8,4.1,0.8 c1.5,0,2.9-0.3,4.1-0.8c1.2-0.5,2.2-1.2,3-2.2c0.8-0.9,1.5-2.1,1.9-3.4c0.4-1.3,0.7-2.7,0.7-4.3v-20.1h3.1v20.1 c0,1.9-0.3,3.6-0.9,5.2c-0.6,1.6-1.4,3-2.5,4.1s-2.4,2.1-4,2.7C518.7,521,516.9,521.4,514.9,521.4"></path> <path class="st0" d="M579.8,520.9h-3.1v-32.8h9.3c2,0,3.8,0.2,5.3,0.7c1.5,0.5,2.7,1.1,3.7,2c1,0.9,1.7,1.9,2.2,3.1 c0.5,1.2,0.7,2.5,0.7,4c0,1.5-0.3,2.9-0.8,4.1c-0.5,1.2-1.3,2.3-2.3,3.2c-1,0.9-2.3,1.6-3.7,2.1c-1.5,0.5-3.2,0.8-5.1,0.8h-6.3 V520.9z M586.1,506c2.9,0,5.1-0.7,6.6-2.2c1.5-1.5,2.3-3.4,2.3-5.8c0-2.4-0.7-4.3-2.2-5.7c-1.5-1.4-3.7-2.1-6.6-2.1h-6.3V506H586.1z "></path> <path class="st0" d="M118,387.4c0,8.3-1.3,15.8-4,22.7c-2.7,6.8-6.5,12.7-11.4,17.6c-4.9,4.9-10.7,8.7-17.6,11.4 c-6.8,2.7-14.4,4.1-22.8,4.1H20V331.6h42.1c8.4,0,16,1.4,22.8,4.1c6.8,2.7,12.7,6.5,17.6,11.4c4.9,4.9,8.7,10.8,11.4,17.6 C116.6,371.6,118,379.1,118,387.4 M99.4,387.4c0-6.4-0.9-12.2-2.6-17.3c-1.7-5.1-4.2-9.4-7.4-12.9c-3.2-3.5-7.1-6.2-11.7-8.1 c-4.6-1.9-9.8-2.8-15.5-2.8H38.3v82.3h23.9c5.7,0,10.9-0.9,15.5-2.8c4.6-1.9,8.5-4.6,11.7-8.1c3.2-3.5,5.7-7.8,7.4-12.9 C98.6,399.6,99.4,393.8,99.4,387.4"></path> <polygon class="st0" points="210.6,428.5 210.5,443.2 141,443.2 141,331.6 210.5,331.6 210.5,346.3 159.2,346.3 159.2,379.9 200.2,379.9 200.2,394 159.2,394 159.2,428.5 "></polygon> <path class="st0" d="M326.6,331.6l-45.2,111.5h-16.3l-45.2-111.5h14.5c1.6,0,2.9,0.4,3.9,1.2c1,0.8,1.7,1.8,2.2,3l28.7,72.7 c1.6,4.1,3,8.8,4.3,14.1c0.6-2.6,1.2-5.1,1.8-7.5c0.6-2.4,1.4-4.6,2.1-6.6l28.7-72.7c0.4-1,1.1-2,2.2-2.9c1-0.9,2.3-1.3,3.9-1.3 H326.6z"></path> <polygon class="st0" points="419.5,346.7 384.7,346.7 384.7,443.2 366.7,443.2 366.7,346.7 331.8,346.7 331.8,331.6 419.5,331.6 "></polygon> <path class="st0" d="M523,443.2h-16.2c-3.2,0-5.5-1.2-7-3.7l-26-37.6c-0.9-1.3-1.8-2.2-2.9-2.8c-1-0.6-2.6-0.9-4.6-0.9h-10.1v44.9 h-18.1V331.6H471c7.3,0,13.6,0.8,18.9,2.2c5.3,1.5,9.6,3.6,13,6.4c3.4,2.8,5.9,6.1,7.6,10c1.6,3.9,2.4,8.2,2.4,12.9 c0,3.9-0.6,7.5-1.7,10.8c-1.2,3.4-2.8,6.4-5,9.1c-2.2,2.7-4.9,5.1-8.1,7.1c-3.2,2-6.8,3.6-10.9,4.7c2.2,1.3,4.1,3.2,5.7,5.7 L523,443.2z M470.5,385.1c4.1,0,7.7-0.5,10.8-1.5c3.1-1,5.7-2.4,7.7-4.2c2.1-1.8,3.6-4,4.6-6.5c1-2.5,1.5-5.3,1.5-8.3 c0-6.1-2-10.7-6-13.9c-4-3.2-10.1-4.8-18.3-4.8h-14.7v39.3H470.5z"></path> <path class="st0" d="M632.9,443.2h-14c-1.6,0-2.9-0.4-3.9-1.2c-1-0.8-1.7-1.8-2.2-3l-9.3-24.6h-48l-9.3,24.6c-0.4,1-1.1,2-2.2,2.9 c-1,0.9-2.3,1.3-3.9,1.3h-14l44.2-111.5h18.4L632.9,443.2z M598.6,401.3l-15.3-40.7c-1.2-3.1-2.5-7.2-3.8-12 c-0.6,2.4-1.2,4.7-1.9,6.7c-0.7,2-1.3,3.8-1.9,5.4l-15.3,40.7H598.6z"></path> <path class="st0" d="M723.4,418.3c1,0,1.8,0.4,2.6,1.2l7.2,7.8c-4.5,5.5-10.1,9.7-16.7,12.7c-6.6,3-14.5,4.5-23.7,4.5 c-8.2,0-15.5-1.4-22.1-4.2c-6.6-2.8-12.2-6.7-16.9-11.8c-4.6-5-8.2-11-10.7-18c-2.5-7-3.8-14.6-3.8-23c0-8.4,1.3-16,4-23 c2.7-7,6.4-13,11.2-18c4.8-5,10.6-8.9,17.4-11.7c6.7-2.8,14.2-4.2,22.3-4.2c8.1,0,15.2,1.3,21.3,3.9c6.2,2.6,11.5,6.1,16.1,10.4 l-6,8.4c-0.4,0.6-0.9,1.1-1.5,1.5c-0.6,0.4-1.3,0.6-2.3,0.6c-1,0-2.2-0.5-3.5-1.4c-1.3-1-3-2-5-3.2c-2-1.2-4.6-2.2-7.7-3.2 c-3.1-1-6.9-1.4-11.5-1.4c-5.3,0-10.2,0.9-14.6,2.8c-4.4,1.9-8.3,4.6-11.5,8.1c-3.2,3.6-5.7,7.9-7.5,13c-1.8,5.1-2.7,10.9-2.7,17.4 c0,6.6,0.9,12.4,2.8,17.5c1.9,5.1,4.4,9.5,7.7,13c3.3,3.5,7.1,6.2,11.5,8.1c4.4,1.9,9.1,2.8,14.2,2.8c3.1,0,5.9-0.2,8.3-0.5 c2.5-0.3,4.7-0.9,6.8-1.6c2.1-0.7,4-1.7,5.8-2.8c1.8-1.1,3.7-2.5,5.5-4.2C721.3,418.8,722.4,418.3,723.4,418.3"></path> <path class="st0" d="M854.6,387.4c0,8.3-1.3,15.9-4,22.9c-2.7,7-6.5,13-11.3,18c-4.9,5-10.7,9-17.6,11.8c-6.8,2.8-14.4,4.3-22.8,4.3 c-8.3,0-15.9-1.4-22.7-4.3c-6.8-2.8-12.7-6.8-17.6-11.8c-4.9-5-8.7-11-11.4-18c-2.7-7-4-14.6-4-22.9s1.3-15.9,4-22.9 c2.7-7,6.5-13,11.4-18.1c4.9-5.1,10.8-9,17.6-11.9c6.8-2.8,14.4-4.3,22.7-4.3c8.4,0,16,1.4,22.8,4.3c6.8,2.8,12.7,6.8,17.6,11.9 c4.9,5.1,8.7,11.1,11.3,18.1C853.2,371.5,854.6,379.1,854.6,387.4 M836,387.4c0-6.4-0.9-12.2-2.6-17.3c-1.7-5.1-4.2-9.4-7.4-13 c-3.2-3.6-7.1-6.3-11.7-8.2c-4.6-1.9-9.8-2.9-15.5-2.9c-5.7,0-10.8,1-15.4,2.9c-4.6,1.9-8.5,4.6-11.8,8.2c-3.3,3.6-5.8,7.9-7.5,13 c-1.8,5.1-2.6,10.9-2.6,17.3c0,6.5,0.9,12.2,2.6,17.4c1.8,5.1,4.3,9.4,7.5,13c3.2,3.5,7.2,6.3,11.8,8.1c4.6,1.9,9.7,2.8,15.4,2.8 c5.7,0,10.9-0.9,15.5-2.8c4.6-1.9,8.5-4.6,11.7-8.1c3.2-3.5,5.7-7.9,7.4-13C835.2,399.6,836,393.8,836,387.4"></path> </svg> 